<svg xmlns="http://www.w3.org/2000/svg" fill="none" viewBox="0 0 24 24">
  <g clip-path="url(#a)">
    <path
      fill="#F96401"
      d="M0 12C0 5.373 5.373 0 12 0s12 5.373 12 12-5.373 12-12 12S0 18.627 0 12Z"
    />
    <path fill="#187AF2" d="M14.158.495 20.021 16.1 1.69 22.296-4.174 6.69z" />
    <path fill="#F2C202" d="m3.825 9.897 24.486 6.97-3.825 12.087L0 21.984z" />
    <path fill="#F5E900" d="m-18-4.232 25.182-4.18L9.476 4.017l-25.182 4.18z" />
  </g>
  <defs>
    <clipPath id="a">
      <path
        fill="#fff"
        d="M0 12C0 5.373 5.373 0 12 0s12 5.373 12 12-5.373 12-12 12S0 18.627 0 12Z"
      />
    </clipPath>
  </defs>
</svg>
