<svg viewBox="0 0 1250 1250" fill="none" xmlns="http://www.w3.org/2000/svg">
  <path
    d="M366.413 596.823C358.923 560.086 326.11 532.266 287.232 532.266C248.355 532.266 215.542 560.086 208.052 596.823H107.827C95.3435 596.823 85 607.166 85 619.65V630.35C85 642.834 95.3435 653.177 107.827 653.177H216.968C230.878 677.431 257.272 693.838 287.232 693.838C317.193 693.838 343.587 677.431 357.497 653.177H429.188V596.823H366.413ZM287.232 652.464C265.476 652.464 247.642 634.63 247.642 612.873C247.642 607.166 248.712 601.46 251.209 596.823C257.272 583.269 271.182 573.639 287.232 573.639C303.283 573.639 316.836 583.269 323.256 596.823C325.396 601.816 326.823 607.166 326.823 612.873C326.823 634.63 308.989 652.464 287.232 652.464Z"
    fill="#87DD64"
  />
  <path
    d="M703.468 596.823C697.048 571.143 677.787 550.099 653.177 541.182C644.26 537.972 634.987 536.189 625 536.189C615.013 536.189 605.383 537.972 596.823 541.182C572.213 550.456 553.309 571.143 546.532 596.823H483.045V653.177H552.596C561.869 671.367 577.563 685.277 596.466 692.411C605.383 695.621 614.657 697.404 624.643 697.404C634.63 697.404 644.26 695.621 652.82 692.411C672.081 685.277 687.774 671.011 696.691 653.177H766.242V596.823H703.468ZM653.177 644.26C649.61 648.184 644.974 651.037 639.98 653.177C635.344 654.96 630.35 656.03 625 656.03C619.65 656.03 614.657 654.96 610.02 653.177C605.026 651.037 600.39 648.184 596.823 644.26C589.69 637.127 585.41 627.497 585.41 616.797C585.41 609.663 587.55 602.53 590.76 596.823C592.543 593.97 594.326 591.473 596.466 589.333C603.6 581.843 613.587 577.563 624.643 577.563C635.7 577.563 645.687 582.199 652.82 589.333C654.96 591.473 657.1 594.326 658.527 596.823C662.094 602.53 663.877 609.663 663.877 616.797C664.591 627.497 660.311 637.127 653.177 644.26Z"
    fill="#87DD64"
  />
  <path
    d="M1142.17 596.823H1041.95C1034.46 560.086 1001.64 532.266 962.768 532.266C923.89 532.266 891.077 560.086 883.587 596.823H821.169V653.177H892.86C906.77 677.431 933.164 693.838 963.124 693.838C993.085 693.838 1019.48 677.431 1033.39 653.177H1142.53C1155.01 653.177 1165.36 642.834 1165.36 630.35V619.65C1165 607.166 1155.01 596.823 1142.17 596.823ZM962.768 652.464C941.011 652.464 923.177 634.63 923.177 612.873C923.177 607.166 924.247 601.46 926.744 596.823C932.807 583.269 946.717 573.639 962.768 573.639C978.818 573.639 992.371 583.269 998.791 596.823C1000.93 601.816 1002.36 607.166 1002.36 612.873C1002.36 634.63 984.525 652.464 962.768 652.464Z"
    fill="#87DD64"
  />
  <path
    d="M483.045 725.225V514.432C514.432 503.375 536.902 473.415 536.902 438.461C536.902 403.507 514.432 373.547 483.045 362.133V281.526C483.045 269.399 473.058 259.769 461.288 259.769H450.945C438.818 259.769 429.188 269.756 429.188 281.526V362.133C397.801 373.19 375.33 403.151 375.33 438.461C375.33 473.415 397.801 503.375 429.188 514.432V725.225C397.801 736.281 375.33 766.242 375.33 801.195C375.33 836.149 397.801 866.11 429.188 877.523V964.551C429.188 976.678 439.174 986.308 450.945 986.308H461.288C473.415 986.308 483.045 976.321 483.045 964.551V877.523C514.432 866.466 536.902 836.506 536.902 801.195C536.902 765.885 514.432 736.638 483.045 725.225ZM429.188 409.571C436.321 402.794 445.951 398.871 456.295 398.871C466.638 398.871 476.268 403.151 483.402 409.571C490.892 416.704 495.885 427.048 495.885 438.104C495.885 449.518 491.248 459.505 483.402 466.638C476.268 473.415 466.638 477.338 456.295 477.338C445.951 477.338 436.321 473.058 429.188 466.638C421.698 459.505 416.704 449.161 416.704 438.104C416.704 427.048 421.341 417.061 429.188 409.571ZM483.045 830.086C475.912 836.863 466.281 840.786 455.938 840.786C445.595 840.786 435.964 836.506 428.831 830.086C421.341 822.952 416.347 812.609 416.347 801.552C416.347 790.495 420.984 780.152 428.831 773.018C435.964 766.242 445.595 762.318 455.938 762.318C466.281 762.318 475.912 766.598 483.045 773.018C490.535 780.152 495.528 790.495 495.528 801.552C495.528 812.609 490.892 822.952 483.045 830.086Z"
    fill="#E05446"
  />
  <path
    d="M653.177 198.421V107.827C653.177 95.3435 642.834 85 630.35 85H619.65C607.166 85 596.823 95.3435 596.823 107.827V198.421C566.149 209.835 544.036 239.439 544.036 274.036C544.036 308.633 566.149 338.236 596.823 349.65V540.826C605.74 537.616 615.013 535.832 625 535.832C634.987 535.832 644.617 537.616 653.177 540.826V350.007C683.851 338.593 705.964 308.989 705.964 274.392C705.964 239.439 683.851 209.835 653.177 198.421ZM653.177 301.856C646.044 309.346 636.057 313.626 625 313.626C613.943 313.626 603.956 308.989 596.823 301.856C589.69 294.723 585.41 285.092 585.41 274.392C585.41 263.692 589.69 254.062 596.823 246.929C603.956 239.439 613.943 235.159 625 235.159C636.057 235.159 646.044 239.795 653.177 246.929C659.954 254.062 664.234 263.692 664.234 274.392C664.234 285.092 660.31 294.723 653.177 301.856Z"
    fill="#E98907"
  />
  <path
    d="M653.177 904.273V692.767C644.26 695.977 634.987 697.761 625 697.761C615.013 697.761 605.383 695.977 596.823 692.767V904.273C566.149 915.687 544.036 945.291 544.036 979.888C544.036 1014.48 566.149 1044.09 596.823 1055.5V1142.17C596.823 1154.66 607.166 1165 619.65 1165H630.35C642.834 1165 653.177 1154.66 653.177 1142.17V1055.5C683.851 1044.09 705.964 1014.48 705.964 979.888C705.964 945.291 683.851 915.687 653.177 904.273ZM653.177 1007.35C646.044 1014.48 636.057 1019.12 625 1019.12C613.943 1019.12 603.956 1014.48 596.823 1007.35C589.69 1000.22 585.41 990.588 585.41 979.888C585.41 969.188 589.69 959.557 596.823 952.424C603.956 945.291 613.943 940.654 625 940.654C636.057 940.654 646.044 945.291 653.177 952.424C659.954 959.557 664.234 969.188 664.234 979.888C664.59 990.588 660.31 1000.22 653.177 1007.35Z"
    fill="#E98907"
  />
  <path
    d="M821.169 715.238V504.445C852.556 493.388 875.026 463.428 875.026 428.118C875.026 393.164 852.556 363.203 821.169 352.147V276.532C821.169 269.042 817.959 262.266 813.322 257.272C808.329 252.279 801.552 249.425 794.062 249.425C779.082 249.425 766.955 261.552 766.955 276.532V352.147C735.568 363.203 713.098 393.164 713.098 428.118C713.098 463.071 735.568 493.032 766.955 504.445V715.238C735.568 726.295 713.098 756.255 713.098 791.565C713.098 826.519 735.568 856.479 766.955 867.536V949.571C766.955 964.551 779.082 976.678 794.062 976.678C809.042 976.678 821.169 964.551 821.169 949.571V867.536C852.556 856.479 875.026 826.519 875.026 791.565C875.026 756.255 852.2 726.295 821.169 715.238ZM754.472 428.118C754.472 416.704 759.108 406.717 766.955 399.584C774.089 392.807 783.719 388.884 794.062 388.884C804.406 388.884 814.036 393.164 821.169 399.584C828.659 406.717 833.653 417.061 833.653 428.118C833.653 439.531 829.016 449.518 821.169 456.651C814.036 463.428 804.406 467.351 794.062 467.351C783.719 467.351 774.089 463.428 766.955 456.651C759.108 449.874 754.472 439.531 754.472 428.118ZM821.169 820.099C814.036 826.876 804.406 830.799 794.062 830.799C783.719 830.799 774.089 826.876 766.955 820.099C759.465 812.966 754.472 802.622 754.472 791.565C754.472 780.152 759.108 770.165 766.955 763.032C774.089 756.255 783.719 752.332 794.062 752.332C804.406 752.332 814.036 756.612 821.169 763.032C828.659 770.165 833.653 780.509 833.653 791.565C833.296 802.622 828.659 812.966 821.169 820.099Z"
    fill="#47BED5"
  />
</svg>
