<?xml version="1.0" standalone="no"?>
<!DOCTYPE svg PUBLIC "-//W3C//DTD SVG 20010904//EN"
 "http://www.w3.org/TR/2001/REC-SVG-20010904/DTD/svg10.dtd">
<svg version="1.0" xmlns="http://www.w3.org/2000/svg"
 width="1250.000000pt" height="1250.000000pt" viewBox="0 0 1250.000000 1250.000000"
 preserveAspectRatio="xMidYMid meet">
<metadata>
Created by potrace 1.14, written by Peter Selinger 2001-2017
</metadata>
<g transform="translate(0.000000,1250.000000) scale(0.100000,-0.100000)"
fill="#000000" stroke="none">
<path d="M5980 12490 c-2044 -90 -3898 -1161 -5000 -2888 -864 -1356 -1169
-2987 -854 -4582 294 -1492 1147 -2843 2379 -3768 1421 -1066 3216 -1473 4975
-1126 1492 294 2842 1147 3767 2379 1067 1420 1474 3216 1127 4975 -294 1492
-1147 2843 -2379 3768 -1154 865 -2575 1305 -4015 1242z m415 -859 c52 -24 88
-59 114 -109 20 -40 21 -54 21 -521 l0 -480 55 -25 c212 -97 371 -280 445
-511 34 -106 39 -292 12 -406 -25 -105 -58 -180 -116 -267 -80 -121 -238 -254
-352 -298 l-44 -17 0 -952 0 -952 43 -19 c192 -85 363 -260 430 -441 14 -38
28 -76 31 -85 5 -17 29 -18 321 -18 l315 0 0 460 0 460 -56 25 c-142 63 -295
199 -373 333 -22 38 -55 112 -73 163 -31 89 -32 101 -33 244 0 130 3 160 23
225 71 226 220 402 424 502 l87 43 3 415 c3 387 4 418 22 454 25 50 75 100
129 128 59 32 175 32 233 1 65 -34 100 -69 128 -125 l26 -52 0 -411 0 -412 59
-25 c229 -99 407 -317 466 -568 17 -76 20 -241 4 -326 -45 -247 -225 -473
-464 -585 l-65 -31 2 -456 3 -457 307 -3 307 -2 17 56 c79 272 294 486 566
565 102 29 270 36 367 15 312 -66 553 -292 633 -592 l12 -44 541 -2 541 -3 49
-35 c31 -23 58 -54 75 -85 22 -44 25 -61 25 -161 0 -106 -1 -113 -30 -159 -17
-27 -50 -63 -74 -80 l-43 -30 -583 -3 -584 -2 -44 -63 c-167 -234 -429 -360
-714 -344 -116 6 -191 25 -292 73 -134 63 -239 151 -330 277 l-42 57 -352 -2
-352 -3 -3 -305 -2 -305 77 -38 c208 -99 363 -279 433 -502 16 -51 24 -105 27
-200 6 -156 -13 -251 -77 -381 -81 -166 -203 -289 -367 -371 l-93 -46 0 -443
0 -442 -28 -53 c-52 -99 -163 -159 -273 -146 -97 12 -193 87 -225 175 -10 28
-13 140 -14 474 l0 436 -64 30 c-310 145 -489 439 -473 776 6 134 24 203 82
321 82 164 211 292 377 373 l78 37 0 308 0 307 -348 0 -349 0 -46 -74 c-68
-107 -193 -222 -306 -280 l-91 -47 0 -1052 0 -1053 68 -33 c96 -47 180 -110
252 -188 80 -87 131 -174 172 -293 31 -91 32 -102 33 -245 0 -130 -3 -160 -23
-225 -70 -223 -216 -397 -419 -501 l-83 -43 0 -461 0 -461 -32 -54 c-26 -42
-45 -61 -87 -82 -49 -26 -62 -28 -160 -28 -147 1 -211 32 -260 128 -20 40 -21
55 -21 501 l0 460 -72 35 c-203 98 -359 281 -428 501 -32 100 -39 284 -15 391
54 247 230 465 463 573 l52 24 0 1052 0 1052 -74 37 c-139 68 -252 169 -337
301 l-42 65 -343 0 -344 0 0 -358 0 -358 72 -35 c213 -101 385 -304 443 -524
23 -83 30 -256 16 -340 -46 -263 -223 -493 -467 -607 l-64 -30 0 -456 c0 -517
1 -505 -80 -575 -52 -44 -125 -62 -226 -54 -79 6 -133 29 -176 74 -58 61 -58
61 -58 558 l0 456 -47 21 c-127 55 -273 176 -354 294 -114 166 -163 399 -125
597 47 243 214 465 431 574 l95 46 0 359 0 358 -355 0 -354 0 -39 -57 c-53
-78 -175 -192 -258 -241 -38 -23 -112 -56 -164 -74 -90 -31 -103 -32 -240 -33
-121 0 -158 4 -223 23 -188 54 -367 184 -463 336 l-29 46 -575 0 -576 0 -54
33 c-42 25 -61 44 -82 86 -26 49 -28 63 -28 160 0 95 3 113 26 159 18 35 41
63 72 85 l47 32 540 3 540 3 29 89 c29 92 86 195 153 277 88 108 261 216 413
259 90 25 308 26 400 1 147 -40 291 -127 398 -241 97 -104 145 -195 198 -373
3 -10 74 -13 314 -13 l310 0 0 413 0 413 -37 13 c-67 24 -166 88 -236 151
-343 315 -355 840 -26 1169 72 72 180 146 257 176 l42 17 0 424 c0 458 0 457
55 522 50 60 96 76 215 76 116 1 158 -14 211 -71 60 -64 59 -53 59 -520 l0
-429 72 -34 c437 -209 600 -743 352 -1152 -77 -127 -224 -258 -358 -318 l-66
-30 0 -410 0 -410 315 0 c292 0 316 1 321 18 72 228 226 410 437 513 l67 33 0
952 0 952 -66 31 c-198 93 -353 268 -425 481 -27 81 -33 114 -37 220 -6 154
15 248 82 385 80 161 207 290 363 367 l83 41 0 482 0 481 33 54 c25 42 44 61
86 82 49 26 62 28 160 28 81 0 115 -5 146 -19z"/>
<path d="M6181 10138 c-118 -19 -236 -110 -288 -222 -25 -54 -28 -72 -28 -161
0 -88 3 -107 27 -157 37 -80 107 -152 187 -191 61 -30 72 -32 171 -32 99 0
110 2 172 33 83 41 158 120 189 200 18 44 23 77 23 147 0 115 -25 183 -96 261
-91 99 -222 144 -357 122z"/>
<path d="M7842 8595 c-189 -53 -301 -210 -290 -406 15 -250 269 -419 510 -338
164 55 258 179 266 349 4 96 -14 160 -70 245 -82 123 -270 191 -416 150z"/>
<path d="M4460 8494 c-110 -30 -199 -105 -253 -214 -29 -59 -32 -72 -31 -160
0 -106 16 -155 80 -241 69 -94 204 -154 329 -146 100 6 174 38 245 104 229
211 131 578 -175 658 -72 18 -123 18 -195 -1z"/>
<path d="M2777 6749 c-109 -26 -209 -109 -260 -217 -29 -61 -32 -76 -32 -162
0 -86 3 -101 32 -162 121 -256 459 -306 649 -96 97 107 123 281 63 417 -74
167 -270 263 -452 220z"/>
<path d="M9509 6742 c-287 -95 -366 -458 -144 -661 78 -71 145 -95 265 -96 86
0 101 3 162 32 85 40 151 106 191 191 29 61 32 76 32 162 0 87 -3 101 -32 160
-68 138 -188 219 -336 226 -62 3 -96 0 -138 -14z"/>
<path d="M6133 6706 c-104 -34 -195 -114 -241 -214 -23 -49 -27 -70 -27 -157
0 -91 3 -106 31 -165 96 -202 329 -283 531 -184 285 139 275 561 -15 697 -52
24 -80 30 -150 33 -57 3 -102 -1 -129 -10z"/>
<path d="M7823 4956 c-104 -34 -194 -114 -241 -214 -24 -50 -27 -69 -27 -157
0 -87 4 -107 27 -158 37 -80 114 -158 191 -193 56 -26 72 -29 167 -29 95 0
111 3 167 29 77 35 153 113 191 193 23 51 27 71 27 158 0 88 -3 107 -27 157
-37 80 -107 152 -186 190 -56 28 -77 33 -156 35 -57 2 -107 -2 -133 -11z"/>
<path d="M4419 4847 c-102 -43 -172 -109 -216 -202 -25 -53 -28 -71 -28 -160
0 -93 2 -105 32 -165 41 -83 100 -142 182 -183 61 -30 72 -32 171 -32 93 0
111 3 163 27 80 38 158 115 193 191 26 55 29 73 29 162 0 92 -2 105 -32 166
-39 80 -111 150 -191 187 -46 21 -75 27 -152 29 -82 3 -103 0 -151 -20z"/>
<path d="M6157 3080 c-109 -28 -219 -118 -265 -218 -35 -76 -42 -196 -17 -273
38 -116 124 -207 238 -252 73 -28 203 -28 274 0 215 86 312 323 215 526 -43
91 -91 141 -176 183 -61 30 -86 36 -152 39 -44 3 -96 0 -117 -5z"/>
</g>
</svg>
